<svg width="260" height="560" xmlns="http://www.w3.org/2000/svg">
 <title>jung_splash_placeholder_red</title>

 <g>
  <title>Layer 1</title>
  <g stroke="null">
   <title stroke="null">jung_splash_placeholder</title>
   <g stroke="null">
    <title stroke="null">Layer 1</title>
    <g stroke="null" stroke-width="0" id="svg_7">
     <path stroke="null" fill=" rgb(255, 0, 0)" id="svg_10" d="m174.45263,81.8635l18.38537,17.30388l4.32597,-5.40746s4.32597,-27.03731 -19.46686,-55.1561c5.40746,15.14089 8.65194,30.28178 8.65194,36.77073c-4.32597,-9.73343 -15.14089,-18.38537 -19.46686,-19.46686c7.57044,8.65194 7.57044,25.95581 7.57044,25.95581l0.00001,0.00001z" class="cls-1"/>
     <path stroke="null" fill=" rgb(255, 0, 0)" id="svg_9" d="m195.00099,61.31515s5.40746,-15.14089 15.14089,-22.71133c-3.24448,8.65194 -8.29144,21.99034 -10.45442,38.21272a65.47354,65.47354 0 0 0 -4.68647,-15.50139z" class="cls-1"/>
     <path stroke="null" fill=" rgb(255, 0, 0)" id="svg_8" d="m200.40845,91.23643l9.37293,-10.09393s2.88398,-16.94338 10.45442,-24.51382c-8.65194,4.32597 -19.82736,17.30388 -19.82736,34.60776l0.00001,-0.00001z" class="cls-1"/>
    </g>
   </g>
  </g>
 </g>
</svg>