<svg width="260" height="560" xmlns="http://www.w3.org/2000/svg">
 <title>jung_splash_placeholder_red</title>

 <g>
  <title>Layer 1</title>
  <g id="svg_1" stroke="null">
   <title stroke="null">jung_splash_placeholder</title>
   <g id="svg_2" stroke="null">
    <title stroke="null">Layer 1</title>
    <g id="svg_7" stroke-width="0" stroke="null">
     <path class="cls-1" d="m174.45263,81.8635l18.38537,17.30388l4.32597,-5.40746s4.32597,-27.03731 -19.46686,-55.1561c5.40746,15.14089 8.65194,30.28178 8.65194,36.77073c-4.32597,-9.73343 -15.14089,-18.38537 -19.46686,-19.46686c7.57044,8.65194 7.57044,25.95581 7.57044,25.95581l0.00001,0.00001l-0.00001,-0.00001z" id="svg_10" fill=" rgb(255, 0, 0)" stroke="null"/>
     <path class="cls-1" d="m195.00099,61.31515s5.40746,-15.14089 15.14089,-22.71133c-3.24448,8.65194 -8.29144,21.99034 -10.45442,38.21272a65.47354,65.47354 0 0 0 -4.68647,-15.50139z" id="svg_9" fill=" rgb(255, 0, 0)" stroke="null"/>
     <path class="cls-1" d="m200.40845,91.23643l9.37293,-10.09393s2.88398,-16.94338 10.45442,-24.51382c-8.65194,4.32597 -19.82736,17.30388 -19.82736,34.60776l0.00001,-0.00001z" id="svg_8" fill=" rgb(255, 0, 0)" stroke="null"/>
    </g>
   </g>
  </g>
  <g stroke="null">
   <title stroke="null">jung_splash_placeholder</title>
   <g stroke="null">
    <title stroke="null">Layer 1</title>
    <g stroke="null" stroke-width="0" id="svg_3">
     <path stroke="null" id="svg_6" fill="#fff" d="m174.24491,81.7703l18.3764,17.29543l4.32386,-5.40483s4.32386,-27.02411 -19.45736,-55.12919c5.40483,15.1335 8.64771,30.26701 8.64771,36.75279c-4.32386,-9.72868 -15.1335,-18.3764 -19.45736,-19.45736c7.56675,8.64771 7.56675,25.94315 7.56675,25.94315l0.00001,0.00001z" class="cls-1"/>
     <path stroke="null" id="svg_5" fill="#fff" d="m194.78324,61.23197s5.40483,-15.1335 15.1335,-22.70025c-3.2429,8.64771 -8.28739,21.97961 -10.44932,38.19408a65.44159,65.44159 0 0 0 -4.68418,-15.49382z" class="cls-1"/>
     <path stroke="null" id="svg_4" fill="#fff" d="m200.18807,91.13866l9.36836,-10.089s2.88257,-16.93511 10.44932,-24.50186c-8.64771,4.32386 -19.81769,17.29543 -19.81769,34.59087l0.00001,-0.00001z" class="cls-1"/>
    </g>
   </g>
  </g>
 </g>
</svg>