<svg width="260" height="560" xmlns="http://www.w3.org/2000/svg">
 <title>jung_splash_placeholder_blue</title>

 <g>
  <title>Layer 1</title>
  <g stroke="null">
   <title stroke="null">jung_splash_placeholder</title>
   <g stroke="null">
    <title stroke="null">Layer 1</title>
    <g stroke="null" stroke-width="0" id="svg_15">
     <path stroke="null" fill=" rgb(0, 199, 254)" id="svg_18" d="m45.54055,82.0888l18.31274,17.23552l4.30888,-5.3861s4.30888,-26.9305 -19.38997,-54.93823c5.3861,15.08108 8.61776,30.16216 8.61776,36.62548c-4.30888,-9.69498 -15.08108,-18.31274 -19.38997,-19.38997c7.54054,8.61776 7.54054,25.85328 7.54054,25.85328l0.00001,0.00001z" class="cls-1"/>
     <path stroke="null" fill=" rgb(0, 199, 254)" id="svg_17" d="m66.00773,61.62162s5.3861,-15.08108 15.08108,-22.62162c-3.23166,8.61776 -8.25868,21.90347 -10.41313,38.06178a65.21491,65.21491 0 0 0 -4.66796,-15.44016z" class="cls-1"/>
     <path stroke="null" fill=" rgb(0, 199, 254)" id="svg_16" d="m71.39383,91.42471l9.33591,-10.05405s2.87259,-16.87645 10.41313,-24.41699c-8.61776,4.30888 -19.74904,17.23552 -19.74904,34.47105l0.00001,-0.00001z" class="cls-1"/>
    </g>
   </g>
  </g>
 </g>
</svg>