<svg width="260" height="539" xmlns="http://www.w3.org/2000/svg">
 <title>jung_splash_placeholder</title>

 <g>
  <title>Layer 1</title>
  <g stroke="null" id="Top" stroke-width="0">
   <path stroke="null" class="cls-1" d="m103.07432,114.06757l24.46622,23.02703l5.75676,-7.19595s5.75676,-35.97973 -25.90541,-73.39865c7.19595,20.14865 11.51351,40.2973 11.51351,48.93243c-5.75676,-12.9527 -20.14865,-24.46622 -25.90541,-25.90541c10.07432,11.51351 10.07432,34.54054 10.07432,34.54054z" fill="#fff" id="svg_1"/>
   <path stroke="null" class="cls-1" d="m130.41892,86.72297s7.19595,-20.14865 20.14865,-30.22297c-4.31757,11.51351 -11.03378,29.26351 -13.91216,50.85135a87.12852,87.12852 0 0 0 -6.23649,-20.62838z" fill="#fff" id="svg_2"/>
   <path stroke="null" class="cls-1" d="m137.61487,126.54054l12.47297,-13.43243s3.83784,-22.5473 13.91216,-32.62162c-11.51351,5.75676 -26.38514,23.02703 -26.38514,46.05406z" fill="#fff" id="svg_3"/>
  </g>
 </g>
</svg>