<svg width="260" height="560" xmlns="http://www.w3.org/2000/svg">
 <title>jung_splash_placeholder_blue</title>

 <g>
  <title>Layer 1</title>
  <g stroke="null">
   <title stroke="null">jung_splash_placeholder</title>
   <g stroke="null">
    <title stroke="null">Layer 1</title>
    <g stroke="null" stroke-width="0" id="svg_7">
     <path stroke="null" id="svg_10" fill="#fff" d="m45.10447,81.53633l18.4348,18.95658l4.3376,-5.92393s4.3376,-29.61965 -19.5192,-60.42409c5.422,16.587 8.6752,33.17401 8.6752,40.28272c-4.3376,-10.66307 -15.1816,-20.14136 -19.5192,-21.32615c7.5908,9.47829 7.5908,28.43486 7.5908,28.43486l0.00001,0.00001z" class="cls-1"/>
     <path stroke="null" id="svg_9" fill="#fff" d="m65.70807,59.02539s5.422,-16.587 15.1816,-24.8805c-3.2532,9.47829 -8.31373,24.09065 -10.48253,41.86244a65.64957,71.72695 0 0 0 -4.69907,-16.98193z" class="cls-1"/>
     <path stroke="null" id="svg_8" fill="#fff" d="m71.13008,91.80447l9.39813,-11.058s2.89173,-18.56165 10.48253,-26.85515c-8.6752,4.73915 -19.88067,18.95658 -19.88067,37.91316l0.00001,-0.00001z" class="cls-1"/>
    </g>
   </g>
  </g>
 </g>
</svg>