<svg width="260" height="560" xmlns="http://www.w3.org/2000/svg">
 <title>mid_splash_placeholder_red</title>

 <g>
  <title>Layer 1</title>
  <g id="svg_1" stroke="null">
   <title stroke="null">mid_splash_placeholder</title>
   <g id="svg_2" stroke="null">
    <title stroke="null">Layer 1</title>
    <g id="svg_11" stroke="null">
     <polygon id="svg_14" points="214.23451720153207,39.00601577758789 172.67671867231184,80.56381799759333 172.67671867231184,92.07214392834271 184.1850298399204,92.07214392834271 225.74282836914062,50.51433063598165 225.74282836914062,39.00601577758789 214.23451720153207,39.00601577758789 " class="cls-1" fill=" rgb(255, 0, 0)" stroke="null"/>
     <polygon id="svg_13" points="180.34893103843115,67.06711844477763 180.34893103843115,46.6782281437072 200.7378324118572,46.6782281437072 208.41003001483568,39.00601577758789 172.67671867231184,39.00601577758789 172.67671867231184,74.73932342932653 180.34893103843115,67.06711844477763 " class="cls-2" fill=" rgb(175, 0, 0)" stroke="null"/>
     <polygon id="svg_12" points="218.0706160030213,64.01101542565652 218.0706160030213,84.39993894379381 197.68171462959526,84.39993894379381 190.0095317897576,92.07214392834271 225.74282836914062,92.07214392834271 225.74282836914062,56.33883627660407 218.0706160030213,64.01101542565652 " class="cls-2" fill=" rgb(175, 0, 0)" stroke="null"/>
    </g>
   </g>
  </g>
  <g>
   <title>mid_splash_placeholder_blue</title>
   <g>
    <title>Layer 1</title>
    <g stroke="null">
     <title stroke="null">mid_splash_placeholder</title>
     <g stroke="null">
      <title stroke="null">Layer 1</title>
      <g id="svg_3" stroke="null">
       <polygon id="svg_6" fill="#fff" points="214.1951141357422,38.00469970703125 172.16606903076172,80.2864990234375 172.16606903076172,91.99530029296875 183.80487823486328,91.99530029296875 225.83392333984375,49.7135009765625 225.83392333984375,38.00469970703125 214.1951141357422,38.00469970703125 " class="cls-1" stroke="null"/>
       <polygon id="svg_5" fill="#666" points="179.92528533935547,66.55465698242188 179.92528533935547,45.810577392578125 200.54537963867188,45.810577392578125 208.30458068847656,38.00469970703125 172.16606903076172,38.00469970703125 172.16606903076172,74.36053466796875 179.92528533935547,66.55465698242188 " class="cls-2" stroke="null"/>
       <polygon id="svg_4" fill="#666" points="218.07473754882812,63.4453125 218.07473754882812,84.189453125 197.45462036132812,84.189453125 189.69541931152344,91.99530029296875 225.83392333984375,91.99530029296875 225.83392333984375,55.63946533203125 218.07473754882812,63.4453125 " class="cls-2" stroke="null"/>
      </g>
     </g>
    </g>
   </g>
  </g>
 </g>
</svg>