<svg width="260" height="560" xmlns="http://www.w3.org/2000/svg">

 <title>sup_splash_placeholder</title>
 <g>
  <title>Layer 1</title>
  <g stroke="null" id="Top">
   <path stroke="null" id="svg_1" fill="#fff" d="m136.87396,84l5.50415,16.51245l15.11774,-2.74792l-9.62189,-11s12.37811,-1.36981 26.12604,-11l-30.25208,0l-6.87396,8.23547z" class="cls-1"/>
   <path stroke="null" id="svg_2" fill="#fff" d="m123.12604,84l-5.50415,16.51245l-15.12604,-2.74792l9.63019,-11s-12.37811,-1.36981 -26.12604,-11l30.25208,0l6.87396,8.23547z" class="cls-1"/>
   <polygon stroke="null" id="svg_3" fill="#fff" points="132.7479248046875,86.7479248046875 130,88.12603759765625 127.2520751953125,86.7479248046875 117.62188720703125,126.62188720703125 130,134.87396240234375 142.37811279296875,126.62188720703125 132.7479248046875,86.7479248046875 " class="cls-1"/>
   <polygon stroke="null" id="svg_4" fill="#fff" points="116.2520751953125,66.12603759765625 130,84 143.7479248046875,66.12603759765625 139.62188720703125,62 120.37812042236328,62 116.2520751953125,66.12603759765625 " class="cls-1"/>
  </g>
 </g>
</svg>