<svg width="260" height="560" xmlns="http://www.w3.org/2000/svg">
 <title>sup_splash_placeholder_red</title>

 <g>
  <title>Layer 1</title>
  <g stroke="null">
   <title stroke="null">sup_splash_placeholder</title>
   <g stroke="null">
    <title stroke="null">Layer 1</title>
    <g stroke="null" id="svg_21">
     <path stroke="null" fill=" rgb(255, 0, 0)" class="cls-1" d="m204.3109,55.1107l3.83263,11.4979l10.52674,-1.91342l-6.69989,-7.65949s8.61909,-0.95382 18.192,-7.65949l-21.06504,0l-4.78645,5.7345z" id="svg_25"/>
     <path stroke="null" fill=" rgb(255, 0, 0)" class="cls-1" d="m194.73799,55.1107l-3.83263,11.4979l-10.53252,-1.91342l6.70566,-7.65949s-8.61909,-0.95382 -18.192,-7.65949l21.06504,0l4.78645,5.7345z" id="svg_24"/>
     <polygon stroke="null" fill=" rgb(255, 0, 0)" class="cls-1" points="201.43785727501745,57.02413398073031 199.52443983658486,57.98372559320296 197.61102239815227,57.02413398073031 190.905350519055,84.78904969993891 199.52443983658486,90.53509888415647 208.14352915411473,84.78904969993891 201.43785727501745,57.02413398073031 " id="svg_23"/>
     <polygon stroke="null" fill=" rgb(255, 0, 0)" class="cls-1" points="189.95152469309505,42.66475349489383 199.52443983658486,55.11070488639507 209.09735498007467,42.66475349489383 206.22431484676235,39.79173278808594 192.82456482640737,39.79173278808594 189.95152469309505,42.66475349489383 " id="svg_22"/>
    </g>
   </g>
  </g>
 </g>
</svg>