<svg width="260" height="560" xmlns="http://www.w3.org/2000/svg">
 <title>sup_splash_placeholder</title>

 <g>
  <title>Layer 1</title>
  <g stroke="null" stroke-width="0" id="Top">
   <path stroke="null" fill=" rgb(0, 199, 254)" class="cls-1" d="m79.62415,57l4.5034,13.51019l12.36906,-2.2483l-7.87246,-9s10.12754,-1.12075 21.37585,-9l-24.7517,0l-5.62415,6.73811z" id="svg_1"/>
   <path stroke="null" fill=" rgb(0, 199, 254)" class="cls-1" d="m68.37585,57l-4.5034,13.51019l-12.37585,-2.2483l7.87925,-9s-10.12754,-1.12075 -21.37585,-9l24.7517,0l5.62415,6.73811z" id="svg_2"/>
   <polygon stroke="null" fill=" rgb(0, 199, 254)" class="cls-1" points="76.24829864501953,59.2483024597168 74,60.37584686279297 71.75170135498047,59.2483024597168 63.87245178222656,91.87244415283203 74,98.6241455078125 84.12754821777344,91.87244415283203 76.24829864501953,59.2483024597168 " id="svg_3"/>
   <polygon stroke="null" fill=" rgb(0, 199, 254)" class="cls-1" points="62.75170135498047,42.37584686279297 74,57 85.24829864501953,42.37584686279297 81.87245178222656,39 66.12754821777344,39 62.75170135498047,42.37584686279297 " id="svg_4"/>
  </g>
 </g>
</svg>