<svg width="260" height="560" xmlns="http://www.w3.org/2000/svg">
 <title>sup_splash_placeholder</title>

 <g>
  <title>Layer 1</title>
  <g stroke="null" stroke-width="0" id="Top">
   <path stroke="null" fill=" rgb(0, 199, 254)" class="cls-1" d="m79.62415,57l4.5034,13.51019l12.36906,-2.2483l-7.87246,-9s10.12754,-1.12075 21.37585,-9l-24.7517,0l-5.62415,6.73811z" id="svg_1"/>
   <path stroke="null" fill=" rgb(0, 199, 254)" class="cls-1" d="m68.37585,57l-4.5034,13.51019l-12.37585,-2.2483l7.87925,-9s-10.12754,-1.12075 -21.37585,-9l24.7517,0l5.62415,6.73811z" id="svg_2"/>
   <polygon stroke="null" fill=" rgb(0, 199, 254)" class="cls-1" points="76.24829864501953,59.2483024597168 74,60.37584686279297 71.75170135498047,59.2483024597168 63.87245178222656,91.87244415283203 74,98.6241455078125 84.12754821777344,91.87244415283203 76.24829864501953,59.2483024597168 " id="svg_3"/>
   <polygon stroke="null" fill=" rgb(0, 199, 254)" class="cls-1" points="62.75170135498047,42.37584686279297 74,57 85.24829864501953,42.37584686279297 81.87245178222656,39 66.12754821777344,39 62.75170135498047,42.37584686279297 " id="svg_4"/>
  </g>
  <g id="svg_10" stroke="null">
   <title stroke="null">sup_splash_placeholder</title>
   <g id="svg_11" stroke="null">
    <title stroke="null">Layer 1</title>
    <g id="svg_5" stroke="null">
     <path id="svg_9" fill="#fff" d="m79.89302,56.76029l4.8732,14.61959l13.38476,-2.43292l-8.51891,-9.73905s10.95918,-1.21279 23.13116,-9.73905l-26.78422,0l-6.08598,7.29142l-0.00001,0.00001z" class="cls-1" stroke="null"/>
     <path id="svg_8" fill="#fff" d="m67.72106,56.76029l-4.8732,14.61959l-13.39211,-2.43292l8.52626,-9.73905s-10.95918,-1.21279 -23.13116,-9.73905l26.78422,0l6.08598,7.29142l0.00001,0.00001z" class="cls-1" stroke="null"/>
     <polygon id="svg_7" fill="#fff" points="76.23996758460999,59.193214893341064 73.80704522132874,60.41335344314575 71.37411522865295,59.193214893341064 62.84785485267639,94.49634599685669 73.80704522132874,101.80246782302856 84.76622796058655,94.49634599685669 76.23996758460999,59.193214893341064 " class="cls-1" stroke="null"/>
     <polygon id="svg_6" fill="#fff" points="61.63506722450256,40.93525743484497 73.80704522132874,56.760292530059814 85.97901177406311,40.93525743484497 82.32595086097717,37.28219652175903 65.2881395816803,37.28219652175903 61.63506722450256,40.93525743484497 " class="cls-1" stroke="null"/>
    </g>
   </g>
  </g>
 </g>
</svg>