<svg width="260" height="560" xmlns="http://www.w3.org/2000/svg">
 <title>sup_splash_placeholder_red</title>

 <g>
  <title>Layer 1</title>
  <g id="svg_1" stroke="null">
   <title stroke="null">sup_splash_placeholder</title>
   <g id="svg_2" stroke="null">
    <title stroke="null">Layer 1</title>
    <g id="svg_21" stroke="null">
     <path id="svg_25" d="m208.66799,54.19275l3.83263,11.4979l10.52674,-1.91342l-6.69989,-7.65949s8.61909,-0.95382 18.192,-7.65949l-21.06504,0l-4.78645,5.7345l0.00001,0z" class="cls-1" fill=" rgb(255, 0, 0)" stroke="null"/>
     <path id="svg_24" d="m199.09508,54.19275l-3.83263,11.4979l-10.53252,-1.91342l6.70566,-7.65949s-8.61909,-0.95382 -18.192,-7.65949l21.06504,0l4.78645,5.7345z" class="cls-1" fill=" rgb(255, 0, 0)" stroke="null"/>
     <polygon id="svg_23" points="205.79493713378906,56.10618305206299 203.88153076171875,57.06577396392822 201.96810913085938,56.10618305206299 195.26243591308594,83.87109470367432 203.88153076171875,89.61714267730713 212.5006103515625,83.87109470367432 205.79493713378906,56.10618305206299 " class="cls-1" fill=" rgb(255, 0, 0)" stroke="null"/>
     <polygon id="svg_22" points="194.30860900878906,41.74680042266846 203.88153076171875,54.19275379180908 213.45443725585938,41.74680042266846 210.58140563964844,38.873780250549316 197.18165588378906,38.873780250549316 194.30860900878906,41.74680042266846 " class="cls-1" fill=" rgb(255, 0, 0)" stroke="null"/>
    </g>
   </g>
  </g>
  <g stroke="null" id="svg_3">
   <title stroke="null">sup_splash_placeholder</title>
   <g stroke="null" id="svg_4">
    <title stroke="null">Layer 1</title>
    <g stroke="null" id="svg_11">
     <path stroke="null" id="svg_15" fill="#fff" d="m209.01212,54.143l4.05309,12.15928l11.13226,-2.02349l-7.08528,-8.10008s9.11487,-1.00869 19.23844,-8.10008l-22.27674,0l-5.06178,6.06436z" class="cls-1"/>
     <path stroke="null" id="svg_14" fill="#fff" d="m198.88856,54.143l-4.05309,12.15928l-11.13837,-2.02349l7.09139,-8.10008s-9.11487,-1.00869 -19.23844,-8.10008l22.27674,0l5.06178,6.06436z" class="cls-1"/>
     <polygon stroke="null" id="svg_13" fill="#fff" points="205.97381591796875,56.16649341583252 203.95033264160156,57.181294441223145 201.92684936523438,56.16649341583252 194.83544921875,85.52850437164307 203.95033264160156,91.60508823394775 213.06521606445312,85.52850437164307 205.97381591796875,56.16649341583252 " class="cls-1"/>
     <polygon stroke="null" id="svg_12" fill="#fff" points="193.82676696777344,40.98114490509033 203.95033264160156,54.1430025100708 214.0738983154297,40.98114490509033 211.0355987548828,37.94285297393799 196.8650665283203,37.94285297393799 193.82676696777344,40.98114490509033 " class="cls-1"/>
    </g>
   </g>
  </g>
 </g>
</svg>