<svg width="260" height="560" xmlns="http://www.w3.org/2000/svg">
 <title>top_splash_placeholder_blue</title>

 <g>
  <title>Layer 1</title>
  <g id="svg_1" stroke="null">
   <title stroke="null">top_splash_placeholder</title>
   <g id="svg_2" stroke="null">
    <title stroke="null">Layer 1</title>
    <g id="svg_3" stroke="null">
     <rect id="svg_6" height="15.85585" width="15.85585" y="58.81981" x="189.81981" class="cls-1" fill=" rgb(255, 0, 0)" stroke="null"/>
     <polygon id="svg_5" points="216.90687561035156,51.427024841308594 216.90687561035156,85.9068832397461 182.090087890625,85.9068832397461 174.08287048339844,93.83480072021484 224.8347930908203,93.83480072021484 224.8347930908203,43.57837677001953 216.90687561035156,51.427024841308594 " class="cls-1" fill=" rgb(175, 0, 0)" stroke="null"/>
     <polygon id="svg_4" points="179.909912109375,79.9609375 179.909912109375,48.909908294677734 210.96092224121094,48.909908294677734 220.870849609375,39 170,39 170,89.87085723876953 179.909912109375,79.9609375 " class="cls-2" fill=" rgb(255, 0, 0)" stroke="null"/>
    </g>
   </g>
  </g>
  <g stroke="null">
   <title stroke="null">top_splash_placeholder</title>
   <g stroke="null">
    <title stroke="null">Layer 1</title>
    <g stroke="null" id="svg_7">
     <rect stroke="null" class="cls-1" x="189.55475" y="59.01513" width="15.72003" height="15.72003" fill="#666" id="svg_10"/>
     <polygon stroke="null" class="cls-1" points="216.4097920358181,51.685672760009766 216.4097920358181,85.87019348144531 181.8912373483181,85.87019348144531 173.95262345671654,93.73019409179688 224.26980790495872,93.73019409179688 224.26980790495872,43.90426254272461 216.4097920358181,51.685672760009766 " fill="#666" id="svg_9"/>
     <polygon stroke="null" class="cls-2" points="179.7297383248806,79.97517395019531 179.7297383248806,49.19011306762695 210.51478776335716,49.19011306762695 220.3397999703884,39.36509323120117 169.9047108590603,39.36509323120117 169.9047108590603,89.80021667480469 179.7297383248806,79.97517395019531 " fill="#fff" id="svg_8"/>
    </g>
   </g>
  </g>
 </g>
</svg>