<svg width="260" height="560" xmlns="http://www.w3.org/2000/svg">
 <title>top_splash_placeholder_blue</title>

 <g>
  <title>Layer 1</title>
  <g id="svg_1" stroke="null">
   <title stroke="null">top_splash_placeholder</title>
   <g id="svg_2" stroke="null">
    <title stroke="null">Layer 1</title>
    <g id="svg_19" stroke="null">
     <rect id="svg_22" height="16.05114" width="16.05114" y="59.29862" x="58.06393" class="cls-1" fill=" rgb(0, 199, 254)" stroke="null"/>
     <polygon id="svg_21" points="85.48464575747494,51.81477646910935 85.48464575747494,86.71932657546131 50.23899853217881,86.71932657546131 42.1331740738824,94.74488918902352 93.51020138384774,94.74488918902352 93.51020138384774,43.8694547387131 85.48464575747494,51.81477646910935 " class="cls-1" fill=" rgb(0, 137, 175)" stroke="null"/>
     <polygon id="svg_20" points="48.031975975318346,80.70013540051877 48.031975975318346,49.26665679330472 79.465447595343,49.26665679330472 89.49743055785075,39.23468780517578 38,39.23468780517578 38,90.73212535021594 48.031975975318346,80.70013540051877 " class="cls-2" fill=" rgb(0, 199, 254)" stroke="null"/>
    </g>
   </g>
  </g>
  <g stroke="null">
   <title stroke="null">top_splash_placeholder</title>
   <g stroke="null">
    <title stroke="null">Layer 1</title>
    <g stroke="null" id="svg_8">
     <rect stroke="null" class="cls-1" x="58.10391" y="59.05156" width="16.16515" height="16.16515" fill="#666" id="svg_11"/>
     <polygon stroke="null" class="cls-1" points="85.71937097088653,51.51455477539275 85.71937097088653,86.66701921457752 50.22339753268989,86.66701921457752 42.05999591306863,94.74958515167236 93.80193690798137,94.74958515167236 93.80193690798137,43.512803194961634 85.71937097088653,51.51455477539275 " fill="#666" id="svg_10"/>
     <polygon stroke="null" class="cls-2" points="48.000688167962835,80.60507876735937 48.000688167962835,48.94833907738666 79.65743052366838,48.94833907738666 89.7606646023653,38.845115661621094 37.897464752197266,38.845115661621094 37.897464752197266,90.70831284605629 48.000688167962835,80.60507876735937 " fill="#fff" id="svg_9"/>
    </g>
   </g>
  </g>
 </g>
</svg>